<?xml version="1.0" encoding="UTF-8" standalone="no"?>
<!DOCTYPE svg PUBLIC "-//W3C//DTD SVG 1.1//EN" "http://www.w3.org/Graphics/SVG/1.1/DTD/svg11.dtd">
<svg width="4000" height="1000" fill="black" viewBox="0 0 4000 1000" version="1.1" xmlns="http://www.w3.org/2000/svg" xmlns:xlink="http://www.w3.org/1999/xlink" xml:space="preserve" xmlns:serif="http://www.serif.com/" style="fill-rule:evenodd;clip-rule:evenodd;stroke-linejoin:round;">
    <g transform="matrix(1.28721,0,0,1.28721,66.0682,-93.1899)">
        <g transform="matrix(1.87433,0,0,1.85543,-1663.31,-3438.96)" style="font-size: 800;">
            <g transform="matrix(1,0,0,1,-161.569,63.4145)" style="font-size: 800;">
                <path d="M1082.2,1940.93L1083.26,1938.25C1091.49,1938.25 1099.71,1938.35 1107.94,1938.56L1112.96,1938.56C1114.49,1938.56 1116.16,1938.51 1117.99,1938.4C1124.59,1938.09 1136.52,1937.93 1153.78,1937.93C1157.23,1937.93 1160.58,1937.96 1163.83,1938.01C1167.08,1938.06 1170.23,1938.14 1173.28,1938.25C1173.88,1938.56 1174.34,1939.04 1174.65,1939.67L1174.34,1942.19C1173.73,1943.25 1172.21,1943.77 1169.77,1943.77L1168.55,1943.77C1165.71,1943.67 1161.04,1943.9 1154.54,1944.48C1148.04,1945.06 1143.78,1946.14 1141.75,1947.72C1140.43,1948.88 1139.77,1950.4 1139.77,1952.3C1139.77,1956.4 1141.44,1962.56 1144.79,1970.77L1167.94,2026.5L1176.02,2044.97C1183.84,2064.54 1191.55,2084.54 1199.17,2104.96C1199.98,2107.17 1200.74,2109.17 1201.45,2110.96L1211.66,2085.07C1216.94,2072.02 1222.27,2058.12 1227.65,2043.39L1238.16,2013.71C1238.36,2013.08 1238.92,2010.97 1239.83,2007.39C1249.68,1979.5 1254.61,1961.88 1254.61,1954.51C1254.61,1952.93 1253.92,1951.32 1252.55,1949.69C1251.18,1948.06 1248.97,1946.72 1245.92,1945.67C1244.71,1945.25 1240.75,1944.62 1234.04,1943.77L1222.77,1942.35C1221.86,1941.3 1221.4,1940.4 1221.4,1939.67L1221.86,1938.4L1271.21,1937.93L1287.5,1937.93C1292.99,1937.93 1296.74,1938.3 1298.77,1939.04L1298.93,1940.3C1298.93,1941.14 1298.62,1942.25 1298.01,1943.62C1295.58,1944.46 1293.34,1944.98 1291.31,1945.19C1282.78,1946.25 1277.5,1947.48 1275.47,1948.9C1273.44,1950.32 1271.31,1953.35 1269.08,1957.98L1229.02,2060.6C1216.53,2091.43 1207.64,2115.32 1202.37,2132.27L1197.95,2146C1196.63,2146.85 1195.51,2147.27 1194.6,2147.27C1193.48,2147.27 1192.26,2147.16 1190.94,2146.95C1178.86,2114.53 1169.01,2089.49 1161.39,2071.8L1114.79,1962.24C1111.44,1955.72 1108.93,1951.8 1107.25,1950.48C1105.58,1949.17 1099.71,1947.3 1089.66,1944.88C1086.11,1944.04 1084.13,1943.51 1083.72,1943.3C1083.01,1942.77 1082.5,1941.98 1082.2,1940.93Z" style="font-size: 800;" />
            </g>
            <g transform="matrix(1,0,0,1,-165.685,63.4145)">
                <path d="M1315.06,2136.06C1317.29,2135.11 1319.58,2134.53 1321.91,2134.32C1337.45,2133.27 1346.33,2131.35 1348.57,2128.56C1350.8,2125.77 1351.92,2112.27 1351.92,2088.07L1351.76,2071.49L1351.76,2054.12L1351.15,2035.02L1351.46,2023.81L1351.31,2011.5L1351.31,1996.98L1351,1990.5L1351.31,1982.29C1351.41,1980.4 1351.46,1978.19 1351.46,1975.66C1351.46,1969.03 1351.15,1962.03 1350.55,1954.67C1350.14,1953.19 1349.58,1951.77 1348.87,1950.4C1345.11,1948.4 1339.05,1947.06 1330.67,1946.38C1322.29,1945.69 1317.55,1944.93 1316.43,1944.09C1315.62,1943.46 1315.16,1941.83 1315.06,1939.19L1327.85,1939.19L1368.21,1940.14C1378.57,1940.14 1392.38,1939.83 1409.64,1939.19C1409.64,1940.88 1409.54,1942.46 1409.34,1943.93C1407.3,1944.46 1403.9,1945.04 1399.13,1945.67C1389.49,1946.83 1383.6,1947.93 1381.46,1948.98C1380.14,1949.51 1379.18,1950.4 1378.57,1951.67C1377.55,1953.56 1376.94,1957.09 1376.74,1962.24L1375.98,1982.61L1376.59,2052.86L1376.59,2080.65C1376.39,2089.38 1376.29,2095.33 1376.29,2098.49C1376.29,2110.27 1376.56,2117.8 1377.12,2121.06C1377.68,2124.32 1378.65,2126.66 1380.02,2128.09C1381.39,2129.51 1383.65,2130.64 1386.79,2131.48C1391.46,2132.64 1395.12,2133.27 1397.76,2133.38C1403.45,2133.59 1407.05,2134.43 1408.57,2135.9C1408.88,2137.27 1409.03,2138.43 1409.03,2139.37L1409.03,2140.64C1399.79,2140.95 1392.99,2141.11 1388.62,2141.11C1386.08,2141.11 1381.57,2140.95 1375.07,2140.64L1354.05,2140.95L1318.26,2140.79L1315.36,2140.79L1315.06,2136.06Z" />
            </g>
            <g transform="matrix(0.500395,0,0,0.505491,-94.8328,1869.65)">
                <path d="M2701.53,651.504C2704.37,649.84 2706.9,649.008 2709.14,649.008L2716.13,649.008C2717.55,649.008 2719.98,648.904 2723.43,648.696C2739.05,647.239 2748.27,645.783 2751.11,644.326C2758.21,640.373 2764.29,633.506 2769.36,623.727C2779.91,602.504 2791.77,572.438 2804.95,533.529C2811.23,515.01 2815.19,503.775 2816.81,499.821C2821.88,487.337 2826.75,474.229 2831.41,460.496L2860,378.412C2864.46,365.512 2875.21,335.966 2892.24,289.774C2896.5,278.123 2901.67,262.517 2907.76,242.959L2916.58,242.334L2927.22,242.647C2935.94,260.333 2943.65,279.371 2950.34,299.762C2953.99,310.581 2959.97,326.707 2968.29,348.138L3014.52,476.413L3039.16,546.013C3052.14,585.546 3060.65,609.838 3064.71,618.889C3068.76,627.941 3072.51,633.923 3075.96,636.836C3076.98,637.668 3080.78,638.916 3087.37,640.581C3093.96,642.245 3098.57,643.494 3101.21,644.326C3110.54,647.031 3117.03,649.32 3120.68,651.192C3121.49,653.481 3121.89,655.25 3121.89,656.498C3121.89,657.538 3121.59,659.099 3120.98,661.18C3114.49,661.388 3109.93,661.492 3107.29,661.492C3096.95,661.492 3078.7,661.18 3052.54,660.556L3022.12,659.619L2985.32,660.243C2982.89,660.243 2980.4,660.087 2977.87,659.775C2975.33,659.463 2973.15,659.307 2971.33,659.307L2964.64,659.307C2962.41,659.099 2960.38,658.475 2958.55,657.434C2958.55,654.521 2959.06,651.713 2960.07,649.008C2962.51,647.759 2964.74,647.031 2966.77,646.823L2998.7,644.638C3007.02,644.222 3013.3,643.078 3017.56,641.205C3018.78,637.46 3019.39,634.651 3019.39,632.778C3019.39,629.033 3016.75,619.358 3011.48,603.752C3007.83,593.349 3004.64,583.466 3001.9,574.102C2999.16,564.739 2988.36,533.945 2969.5,481.719C2961.19,480.263 2953.89,479.534 2947.6,479.534L2882.51,480.159L2863.35,479.847C2856.45,479.847 2848.85,480.367 2840.54,481.407C2837.9,487.649 2836.18,492.123 2835.37,494.828L2808.6,580.657C2797.24,613.324 2791.56,631.322 2791.56,634.651C2791.56,636.523 2792.48,639.644 2794.3,644.014C2798.56,645.262 2804.24,646.407 2811.34,647.447L2852.7,651.192C2854.93,653.065 2856.05,654.73 2856.05,656.186C2856.05,657.226 2855.74,658.787 2855.14,660.868C2846.01,661.076 2839.01,661.18 2834.15,661.18C2817.93,661.18 2799.07,660.66 2777.57,659.619C2767.64,659.203 2760.54,658.995 2756.28,658.995C2752.02,658.995 2744.62,659.203 2734.08,659.619C2727.18,660.035 2722.21,660.243 2719.17,660.243C2714.3,660.243 2708.02,659.931 2700.31,659.307L2700.31,657.434C2700.31,655.978 2700.72,654.001 2701.53,651.504ZM2846.62,464.241C2868.32,465.49 2893.06,466.114 2920.84,466.114C2936.65,466.114 2950.54,465.594 2962.51,464.553C2960.48,456.439 2958.15,448.844 2955.51,441.77C2942.33,405.566 2935.03,385.591 2933.61,381.846L2905.93,309.749L2902.89,304.131C2901.67,306.628 2897.21,317.344 2889.51,336.278C2876.53,368.737 2867.2,394.018 2861.52,412.12C2858.89,420.234 2856.15,428.297 2853.31,436.308C2850.47,444.319 2848.7,449.936 2847.99,453.162C2847.28,456.387 2846.21,459.664 2844.79,462.993L2846.62,464.241Z" />
            </g>
        </g>
        <g transform="matrix(1.87433,0,0,1.85543,-1663.31,-3438.96)">
            <g transform="matrix(1,0,0,1,669.313,-235.166)">
                <path d="M920.303,2246.17L920.151,2238.59C935.889,2238.59 947.413,2238.17 954.724,2237.33C957.567,2237.01 959.547,2236.85 960.664,2236.85C961.578,2236.85 962.948,2236.91 964.776,2237.01C969.04,2240.7 973,2244.91 976.656,2249.64C977.468,2250.59 978.382,2251.64 979.397,2252.8L1011.53,2289.58L1016.1,2295.27C1022.6,2303.16 1028.52,2309.89 1033.85,2315.47C1039.18,2321.05 1049.56,2332.68 1064.99,2350.36L1101.39,2392.2C1104.95,2396.3 1109.52,2401.41 1115.1,2407.51L1115.25,2404.99C1114.64,2390.36 1114.34,2382.62 1114.34,2381.78L1114.95,2372.31L1114.64,2357.47L1114.64,2350.68C1114.64,2346.36 1114.29,2333.05 1113.58,2310.74C1113.48,2307.68 1113.07,2301.92 1112.36,2293.45C1111.65,2284.98 1111.29,2277.53 1111.29,2271.11C1111.29,2259.53 1110.63,2252.8 1109.31,2250.91C1108.4,2249.54 1104.08,2248.12 1096.37,2246.64C1094.54,2246.54 1091.7,2246.22 1087.84,2245.7C1083.27,2245.48 1080.58,2245.22 1079.77,2244.91C1078.95,2244.59 1078.14,2243.7 1077.33,2242.22C1077.53,2240.54 1077.99,2238.96 1078.7,2237.49C1081.44,2236.64 1084.13,2236.22 1086.77,2236.22C1089.62,2236.22 1093.14,2236.59 1097.36,2237.33C1101.57,2238.07 1105.35,2238.43 1108.7,2238.43C1113.37,2238.43 1120.63,2238.12 1130.48,2237.49C1136.07,2237.07 1139.93,2236.85 1142.06,2236.85L1144.65,2236.85L1144.34,2241.75C1142.72,2242.49 1140.49,2242.93 1137.64,2243.09C1134.8,2243.25 1132.16,2243.7 1129.72,2244.43C1126.07,2245.59 1123.88,2246.59 1123.17,2247.43C1120.74,2250.17 1119.52,2252.96 1119.52,2255.8L1121.19,2305.69L1122.41,2328.58L1122.26,2335.21L1123.17,2366.94C1123.78,2388.62 1124.09,2407.46 1124.09,2423.46C1124.09,2426.93 1123.88,2434.45 1123.48,2446.03L1116.32,2446.66C1112.77,2442.45 1100.53,2429.19 1079.61,2406.88C1074.74,2401.72 1071.44,2398.09 1069.71,2395.99L1056.62,2380.36C1051.54,2374.57 1048.24,2370.89 1046.72,2369.31C1045.19,2367.73 1044.08,2366.57 1043.37,2365.83C1032.3,2352.78 1017.93,2336.47 1000.26,2316.89C995.491,2311.63 988.485,2303.42 979.245,2292.27C973.457,2285.22 969.802,2280.9 968.279,2279.32C966.756,2277.74 964.674,2275.95 962.034,2273.95L961.578,2279.32C961.578,2299.84 962.085,2328.16 963.101,2364.26L964.167,2416.51C964.268,2420.93 964.522,2425.19 964.928,2429.3L970.259,2430.56C979.905,2431.51 989.398,2432.93 998.74,2434.82C999.451,2435.45 1000.06,2435.93 1000.57,2436.24L1000.42,2442.24C998.791,2442.77 997.471,2443.03 996.455,2443.03C995.338,2443.03 993.968,2442.93 992.343,2442.72C982.291,2441.88 970.056,2441.45 955.638,2441.45C945.484,2441.45 936.549,2441.72 928.832,2442.24L926.7,2442.4C925.786,2442.4 924.466,2442.3 922.74,2442.09L922.588,2437.35L926.547,2435.45L933.706,2434.35C940.103,2433.4 944.773,2432.35 947.718,2431.19C949.647,2430.45 951.221,2429.35 952.439,2427.88C953.556,2420.62 954.115,2409.99 954.115,2395.99C954.115,2389.46 953.962,2377.52 953.658,2360.15L953.658,2338.68L953.353,2293.85C953.15,2273.85 952.49,2262.06 951.373,2258.48C950.764,2256.59 949.495,2254.9 947.565,2253.43C943.707,2250.59 938.656,2248.8 932.411,2248.06C926.167,2247.33 922.131,2246.7 920.303,2246.17Z" />
            </g>
            <g transform="matrix(1,0,0,1,663.653,-235.166)">
                <path d="M1183.47,2338.37C1183.47,2327.63 1184.72,2318.08 1187.2,2309.71C1189.69,2301.34 1193.88,2292.27 1199.77,2282.48C1205.66,2272.69 1212.77,2264.51 1221.09,2257.93C1229.42,2251.35 1240.94,2245.54 1255.67,2240.49C1266.02,2237.01 1279.12,2235.28 1294.96,2235.28C1305.62,2235.28 1316.05,2236.75 1326.26,2239.7C1336.46,2242.64 1345.73,2246.75 1354.05,2252.01C1362.38,2257.27 1370.71,2265.38 1379.03,2276.32C1384.82,2283.9 1389.19,2292.06 1392.13,2300.79C1395.99,2312.26 1397.92,2324.1 1397.92,2336.31C1397.92,2350.2 1396.62,2361.73 1394.03,2370.89C1391.44,2380.04 1387.11,2389.09 1381.01,2398.04C1376.24,2404.99 1368.07,2412.99 1356.49,2422.04C1348.78,2428.14 1339.18,2433.06 1327.71,2436.8C1316.23,2440.53 1303.85,2442.4 1290.54,2442.4C1277.04,2442.4 1265.01,2440.77 1254.45,2437.51C1243.89,2434.24 1235.08,2430.27 1228.02,2425.59C1220.97,2420.9 1213.71,2413.98 1206.24,2404.83C1198.78,2395.67 1193.12,2385.57 1189.26,2374.52C1185.4,2363.47 1183.47,2351.41 1183.47,2338.37ZM1289.17,2436.56C1297.7,2436.56 1306.56,2435.32 1315.75,2432.85C1324.94,2430.38 1333.09,2426.27 1340.19,2420.54C1347.3,2414.8 1352.86,2408.28 1356.87,2400.96C1360.88,2393.64 1364.11,2384.25 1366.54,2372.78C1368.98,2361.31 1370.2,2349.84 1370.2,2338.37C1370.2,2324.05 1368.17,2309.89 1364.11,2295.9C1360.96,2285.27 1355.83,2275.77 1348.72,2267.4C1341.62,2259.03 1333.04,2252.56 1322.98,2247.98C1312.93,2243.41 1302.22,2241.12 1290.85,2241.12C1281.61,2241.12 1272.57,2242.7 1263.74,2245.85C1254.9,2249.01 1247.64,2253.04 1241.96,2257.93C1236.27,2262.82 1230.99,2269.77 1226.12,2278.77C1221.25,2287.77 1217.54,2297.69 1215,2308.53C1212.46,2319.37 1211.19,2328.95 1211.19,2337.26C1211.19,2345.99 1212.46,2355.89 1215,2366.94C1217.54,2377.99 1221.02,2387.57 1225.43,2395.67C1229.85,2403.78 1235.28,2410.96 1241.73,2417.22C1248.18,2423.48 1255.41,2428.27 1263.43,2431.59C1271.45,2434.9 1280.03,2436.56 1289.17,2436.56Z" />
            </g>
            <g transform="matrix(1,0,0,1,664.168,-235.166)">
                <path d="M1404.91,2239.06L1405.98,2236.38C1414.2,2236.38 1422.43,2236.49 1430.65,2236.7L1435.68,2236.7C1437.2,2236.7 1438.88,2236.64 1440.7,2236.54C1447.3,2236.22 1459.23,2236.07 1476.5,2236.07C1479.95,2236.07 1483.3,2236.09 1486.55,2236.14C1489.8,2236.2 1492.94,2236.28 1495.99,2236.38C1496.6,2236.7 1497.06,2237.17 1497.36,2237.8L1497.06,2240.33C1496.45,2241.38 1494.92,2241.91 1492.49,2241.91L1491.27,2241.91C1488.43,2241.8 1483.76,2242.04 1477.26,2242.62C1470.76,2243.2 1466.49,2244.27 1464.46,2245.85C1463.14,2247.01 1462.48,2248.54 1462.48,2250.43C1462.48,2254.54 1464.16,2260.69 1467.51,2268.9L1490.66,2324.63L1498.73,2343.1C1506.55,2362.68 1514.27,2382.67 1521.88,2403.09C1522.69,2405.3 1523.46,2407.3 1524.17,2409.09L1534.37,2383.2C1539.65,2370.15 1544.98,2356.26 1550.36,2341.52L1560.87,2311.84C1561.08,2311.21 1561.63,2309.11 1562.55,2305.53C1572.4,2277.64 1577.32,2260.01 1577.32,2252.64C1577.32,2251.06 1576.63,2249.46 1575.27,2247.83C1573.89,2246.2 1571.69,2244.85 1568.64,2243.8C1567.42,2243.38 1563.46,2242.75 1556.76,2241.91L1545.49,2240.49C1544.58,2239.43 1544.12,2238.54 1544.12,2237.8L1544.58,2236.54L1593.92,2236.07L1610.22,2236.07C1615.7,2236.07 1619.46,2236.43 1621.49,2237.17L1621.64,2238.43C1621.64,2239.28 1621.34,2240.38 1620.73,2241.75C1618.29,2242.59 1616.06,2243.12 1614.03,2243.33C1605.5,2244.38 1600.22,2245.62 1598.19,2247.04C1596.16,2248.46 1594.02,2251.48 1591.79,2256.11L1551.73,2358.73C1539.25,2389.57 1530.36,2413.46 1525.08,2430.4L1520.66,2444.14C1519.34,2444.98 1518.23,2445.4 1517.31,2445.4C1516.2,2445.4 1514.98,2445.3 1513.66,2445.09C1501.58,2412.67 1491.73,2387.62 1484.11,2369.94L1437.51,2260.38C1434.15,2253.85 1431.64,2249.93 1429.97,2248.62C1428.29,2247.3 1422.43,2245.43 1412.38,2243.01C1408.82,2242.17 1406.84,2241.64 1406.43,2241.43C1405.72,2240.91 1405.22,2240.12 1404.91,2239.06Z" />
            </g>
            <g transform="matrix(0.500395,0,0,0.505491,895.181,1869.65)">
                <path d="M2701.53,651.504C2704.37,649.84 2706.9,649.008 2709.14,649.008L2716.13,649.008C2717.55,649.008 2719.98,648.904 2723.43,648.696C2739.05,647.239 2748.27,645.783 2751.11,644.326C2758.21,640.373 2764.29,633.506 2769.36,623.727C2779.91,602.504 2791.77,572.438 2804.95,533.529C2811.23,515.01 2815.19,503.775 2816.81,499.821C2821.88,487.337 2826.75,474.229 2831.41,460.496L2860,378.412C2864.46,365.512 2875.21,335.966 2892.24,289.774C2896.5,278.123 2901.67,262.517 2907.76,242.959L2916.58,242.334L2927.22,242.647C2935.94,260.333 2943.65,279.371 2950.34,299.762C2953.99,310.581 2959.97,326.707 2968.29,348.138L3014.52,476.413L3039.16,546.013C3052.14,585.546 3060.65,609.838 3064.71,618.889C3068.76,627.941 3072.51,633.923 3075.96,636.836C3076.98,637.668 3080.78,638.916 3087.37,640.581C3093.96,642.245 3098.57,643.494 3101.21,644.326C3110.54,647.031 3117.03,649.32 3120.68,651.192C3121.49,653.481 3121.89,655.25 3121.89,656.498C3121.89,657.538 3121.59,659.099 3120.98,661.18C3114.49,661.388 3109.93,661.492 3107.29,661.492C3096.95,661.492 3078.7,661.18 3052.54,660.556L3022.12,659.619L2985.32,660.243C2982.89,660.243 2980.4,660.087 2977.87,659.775C2975.33,659.463 2973.15,659.307 2971.33,659.307L2964.64,659.307C2962.41,659.099 2960.38,658.475 2958.55,657.434C2958.55,654.521 2959.06,651.713 2960.07,649.008C2962.51,647.759 2964.74,647.031 2966.77,646.823L2998.7,644.638C3007.02,644.222 3013.3,643.078 3017.56,641.205C3018.78,637.46 3019.39,634.651 3019.39,632.778C3019.39,629.033 3016.75,619.358 3011.48,603.752C3007.83,593.349 3004.64,583.466 3001.9,574.102C2999.16,564.739 2988.36,533.945 2969.5,481.719C2961.19,480.263 2953.89,479.534 2947.6,479.534L2882.51,480.159L2863.35,479.847C2856.45,479.847 2848.85,480.367 2840.54,481.407C2837.9,487.649 2836.18,492.123 2835.37,494.828L2808.6,580.657C2797.24,613.324 2791.56,631.322 2791.56,634.651C2791.56,636.523 2792.48,639.644 2794.3,644.014C2798.56,645.262 2804.24,646.407 2811.34,647.447L2852.7,651.192C2854.93,653.065 2856.05,654.73 2856.05,656.186C2856.05,657.226 2855.74,658.787 2855.14,660.868C2846.01,661.076 2839.01,661.18 2834.15,661.18C2817.93,661.18 2799.07,660.66 2777.57,659.619C2767.64,659.203 2760.54,658.995 2756.28,658.995C2752.02,658.995 2744.62,659.203 2734.08,659.619C2727.18,660.035 2722.21,660.243 2719.17,660.243C2714.3,660.243 2708.02,659.931 2700.31,659.307L2700.31,657.434C2700.31,655.978 2700.72,654.001 2701.53,651.504ZM2846.62,464.241C2868.32,465.49 2893.06,466.114 2920.84,466.114C2936.65,466.114 2950.54,465.594 2962.51,464.553C2960.48,456.439 2958.15,448.844 2955.51,441.77C2942.33,405.566 2935.03,385.591 2933.61,381.846L2905.93,309.749L2902.89,304.131C2901.67,306.628 2897.21,317.344 2889.51,336.278C2876.53,368.737 2867.2,394.018 2861.52,412.12C2858.89,420.234 2856.15,428.297 2853.31,436.308C2850.47,444.319 2848.7,449.936 2847.99,453.162C2847.28,456.387 2846.21,459.664 2844.79,462.993L2846.62,464.241Z" />
            </g>
        </g>
    </g>
</svg>
