<?xml version="1.0" encoding="UTF-8"?>
<svg xmlns="http://www.w3.org/2000/svg" xmlns:xlink="http://www.w3.org/1999/xlink" width="100px" height="100px" viewBox="0 0 100 100" version="1.1">
<g id="surface1">
<path style=" stroke:none;fill-rule:evenodd;fill:rgb(0%,0%,0%);fill-opacity:1;" d="M 48.804688 8.859375 C 48.15625 12.851562 47.621094 16.128906 47.613281 16.140625 C 47.601562 16.15625 47.53125 16.167969 47.457031 16.167969 C 46.050781 16.167969 42.640625 16.769531 40.433594 17.402344 C 27.085938 21.25 17.199219 33.304688 16.128906 47.042969 C 16.105469 47.328125 16.078125 47.582031 16.066406 47.601562 C 16.054688 47.621094 12.792969 48.164062 8.820312 48.8125 C 4.851562 49.457031 1.601562 49.992188 1.601562 50 C 1.601562 50.007812 4.847656 50.542969 8.820312 51.1875 C 12.789062 51.832031 16.046875 52.367188 16.058594 52.378906 C 16.066406 52.390625 16.089844 52.550781 16.105469 52.742188 C 17.28125 66.738281 26.679688 78.429688 40.050781 82.519531 C 42.265625 83.199219 45.886719 83.863281 47.398438 83.867188 C 47.480469 83.867188 47.570312 83.878906 47.589844 83.894531 C 47.617188 83.910156 48.066406 86.59375 48.808594 91.160156 C 49.453125 95.140625 49.992188 98.398438 50 98.398438 C 50.007812 98.398438 50.546875 95.132812 51.195312 91.140625 C 51.84375 87.148438 52.375 83.878906 52.382812 83.875 C 52.386719 83.871094 52.628906 83.84375 52.921875 83.816406 C 69.269531 82.28125 82.328125 69.023438 83.519531 52.746094 C 83.535156 52.503906 83.554688 52.4375 83.597656 52.425781 C 83.625 52.417969 86.96875 51.871094 91.023438 51.214844 C 95.082031 50.554688 98.398438 50.007812 98.398438 50 C 98.398438 49.992188 95.0625 49.441406 90.980469 48.777344 C 86.902344 48.117188 83.558594 47.570312 83.554688 47.5625 C 83.546875 47.554688 83.515625 47.273438 83.484375 46.933594 C 82.015625 30.667969 69.0625 17.660156 52.90625 16.222656 C 52.628906 16.195312 52.394531 16.167969 52.386719 16.164062 C 52.382812 16.15625 51.84375 12.875 51.195312 8.875 C 50.546875 4.875 50.007812 1.601562 50 1.601562 C 49.992188 1.601562 49.453125 4.867188 48.804688 8.859375 M 52.261719 26.214844 L 54.457031 39.714844 L 53.027344 43 C 52.238281 44.804688 51.589844 46.289062 51.582031 46.296875 C 51.574219 46.304688 51.566406 44.171875 51.566406 41.554688 L 51.566406 36.800781 L 51.675781 36.800781 C 52.449219 36.800781 53.132812 36.070312 53.132812 35.25 C 53.132812 34.429688 52.449219 33.699219 51.675781 33.699219 C 51.574219 33.699219 51.566406 33.691406 51.566406 33.597656 C 51.566406 32.910156 50.835938 32.167969 50.160156 32.167969 L 50.035156 32.167969 L 50.039062 22.375 C 50.039062 16.988281 50.046875 12.613281 50.054688 12.648438 C 50.0625 12.6875 51.058594 18.792969 52.261719 26.214844 M 47.121094 19.257812 C 47.109375 19.308594 46.996094 20.003906 46.867188 20.800781 C 46.738281 21.597656 46.625 22.289062 46.613281 22.339844 C 46.597656 22.421875 46.582031 22.429688 46.304688 22.464844 C 45.34375 22.59375 44.261719 22.789062 43.449219 22.984375 C 43.195312 23.046875 42.980469 23.09375 42.980469 23.089844 C 42.945312 23.050781 42.171875 20.050781 42.191406 20.03125 C 42.320312 19.90625 44.945312 19.421875 46.433594 19.25 C 46.789062 19.207031 47.097656 19.171875 47.109375 19.171875 C 47.125 19.167969 47.128906 19.207031 47.121094 19.257812 M 54.582031 19.4375 C 55.867188 19.636719 57.800781 20.066406 57.800781 20.152344 C 57.800781 20.179688 57.632812 20.820312 57.433594 21.574219 C 57.230469 22.332031 57.050781 23.003906 57.03125 23.070312 L 57 23.191406 L 56.558594 23.078125 C 55.914062 22.914062 54.917969 22.714844 54.125 22.585938 C 53.742188 22.523438 53.425781 22.46875 53.414062 22.460938 C 53.40625 22.453125 53.289062 21.75 53.152344 20.898438 C 53.011719 20.046875 52.894531 19.320312 52.882812 19.28125 L 52.867188 19.210938 L 53.390625 19.273438 C 53.679688 19.304688 54.214844 19.378906 54.582031 19.4375 M 41.78125 20.191406 C 41.917969 20.652344 42.566406 23.148438 42.554688 23.179688 C 42.546875 23.199219 42.386719 23.261719 42.195312 23.3125 C 40.503906 23.785156 38.414062 24.636719 36.777344 25.515625 C 36.492188 25.671875 36.246094 25.800781 36.234375 25.800781 C 36.222656 25.800781 36.046875 25.511719 35.84375 25.160156 C 35.640625 24.804688 35.285156 24.191406 35.054688 23.792969 L 34.636719 23.070312 L 35.03125 22.851562 C 36.90625 21.820312 39.105469 20.910156 41.226562 20.28125 C 41.804688 20.109375 41.757812 20.117188 41.78125 20.191406 M 58.9375 20.449219 C 60.632812 20.984375 62.089844 21.574219 63.632812 22.351562 C 64.472656 22.777344 65.253906 23.214844 65.242188 23.257812 C 65.234375 23.296875 63.738281 25.902344 63.699219 25.945312 C 63.683594 25.960938 63.441406 25.847656 63.160156 25.691406 C 61.519531 24.78125 59.75 24.027344 57.890625 23.449219 C 57.394531 23.296875 57.394531 23.292969 57.414062 23.207031 C 57.429688 23.15625 57.609375 22.476562 57.820312 21.695312 C 58.027344 20.910156 58.199219 20.261719 58.199219 20.253906 C 58.199219 20.21875 58.25 20.230469 58.9375 20.449219 M 35.039062 24.582031 C 35.453125 25.296875 35.808594 25.914062 35.828125 25.953125 C 35.863281 26.019531 35.835938 26.042969 35.441406 26.285156 C 33.78125 27.304688 32.191406 28.523438 30.820312 29.828125 L 30.421875 30.207031 L 29.304688 29.085938 L 28.183594 27.964844 L 28.582031 27.582031 C 29.789062 26.429688 31.316406 25.203125 32.667969 24.300781 C 33.140625 23.980469 34.277344 23.265625 34.289062 23.277344 C 34.289062 23.28125 34.628906 23.867188 35.039062 24.582031 M 66.234375 23.828125 C 67.972656 24.925781 69.546875 26.160156 71.125 27.664062 L 71.632812 28.148438 L 70.507812 29.273438 L 69.386719 30.398438 L 68.949219 29.972656 C 67.683594 28.730469 66.035156 27.4375 64.425781 26.433594 L 64.035156 26.191406 L 64.140625 26 C 65.027344 24.449219 65.625 23.445312 65.648438 23.460938 C 65.667969 23.472656 65.929688 23.636719 66.234375 23.828125 M 46.347656 23.984375 C 46.324219 24.128906 46.304688 24.265625 46.300781 24.285156 C 46.300781 24.304688 46.117188 24.34375 45.890625 24.378906 C 34.945312 26 26.164062 34.707031 24.316406 45.765625 C 24.214844 46.367188 24.253906 46.3125 23.917969 46.363281 C 23.59375 46.410156 23.617188 46.46875 23.714844 45.847656 C 25.453125 34.898438 33.867188 26.136719 44.699219 23.996094 C 45.105469 23.914062 46.367188 23.707031 46.386719 23.714844 C 46.390625 23.714844 46.371094 23.835938 46.347656 23.984375 M 54.234375 23.867188 C 65.300781 25.691406 74.226562 34.761719 75.917969 45.90625 C 75.992188 46.375 76.003906 46.351562 75.660156 46.292969 L 75.386719 46.25 L 75.292969 45.699219 C 73.503906 34.960938 64.910156 26.25 54.367188 24.484375 C 54.191406 24.457031 53.972656 24.417969 53.878906 24.398438 L 53.707031 24.363281 L 53.671875 24.113281 C 53.617188 23.765625 53.617188 23.765625 53.726562 23.785156 C 53.777344 23.792969 54.003906 23.832031 54.234375 23.867188 M 46.085938 25.625 C 46.074219 25.675781 45.617188 28.492188 45.066406 31.878906 C 44.515625 35.269531 44.0625 38.046875 44.058594 38.054688 C 44.054688 38.058594 41.597656 36.96875 38.601562 35.628906 C 35.605469 34.292969 33.140625 33.203125 33.128906 33.207031 C 33.113281 33.210938 34.21875 35.652344 35.582031 38.632812 L 38.058594 44.050781 L 37.96875 44.074219 C 37.8125 44.113281 25.464844 46.109375 25.453125 46.097656 C 25.433594 46.078125 25.613281 45.125 25.734375 44.582031 C 27.855469 35.085938 35.464844 27.625 44.949219 25.738281 C 46.136719 25.5 46.113281 25.503906 46.085938 25.625 M 54.429688 25.6875 C 63.695312 27.445312 71.25 34.503906 73.660156 43.648438 C 73.898438 44.542969 74.195312 45.984375 74.152344 46.027344 C 74.136719 46.042969 62.222656 44.121094 62.03125 44.074219 L 61.941406 44.050781 L 64.421875 38.632812 C 65.78125 35.652344 66.886719 33.210938 66.871094 33.207031 C 66.859375 33.203125 64.394531 34.292969 61.398438 35.628906 C 58.402344 36.96875 55.945312 38.058594 55.941406 38.054688 C 55.9375 38.046875 55.484375 35.269531 54.933594 31.882812 C 54.382812 28.492188 53.929688 25.691406 53.921875 25.660156 C 53.902344 25.585938 53.890625 25.582031 54.429688 25.6875 M 29.949219 30.679688 C 29.859375 30.78125 29.585938 31.078125 29.34375 31.339844 C 28.191406 32.597656 27.074219 34.089844 26.132812 35.640625 C 26.035156 35.800781 25.941406 35.933594 25.925781 35.933594 C 25.902344 35.933594 23.273438 34.433594 23.207031 34.382812 C 23.203125 34.378906 23.367188 34.101562 23.574219 33.761719 C 24.660156 32 26.007812 30.246094 27.445312 28.722656 L 27.882812 28.265625 L 30.113281 30.496094 L 29.949219 30.679688 M 72.386719 28.949219 C 73.476562 30.121094 74.542969 31.46875 75.433594 32.800781 C 75.738281 33.253906 76.5 34.488281 76.5 34.527344 C 76.5 34.542969 76.210938 34.71875 75.859375 34.921875 C 75.503906 35.125 74.894531 35.480469 74.496094 35.710938 L 73.777344 36.125 L 73.546875 35.738281 C 72.617188 34.175781 71.324219 32.449219 70.054688 31.089844 L 69.6875 30.695312 L 70.800781 29.582031 C 71.414062 28.96875 71.925781 28.46875 71.933594 28.476562 C 71.945312 28.480469 72.148438 28.691406 72.386719 28.949219 M 50 39.679688 C 50 43.589844 49.988281 47.421875 49.976562 48.195312 L 49.957031 49.605469 L 49.429688 49.078125 L 48.898438 48.550781 L 48.898438 36.394531 L 48.742188 36.421875 C 47.46875 36.640625 46.796875 35.019531 47.863281 34.308594 C 48.15625 34.113281 48.519531 34.054688 48.863281 34.152344 C 48.9375 34.175781 48.941406 34.171875 48.910156 34.03125 C 48.773438 33.316406 49.28125 32.59375 49.941406 32.570312 C 49.996094 32.566406 50 32.925781 50 39.679688 M 24.464844 35.582031 C 25.152344 35.976562 25.71875 36.304688 25.722656 36.3125 C 25.726562 36.316406 25.605469 36.5625 25.445312 36.851562 C 24.570312 38.46875 23.773438 40.414062 23.265625 42.167969 C 23.1875 42.433594 23.121094 42.65625 23.117188 42.660156 C 23.105469 42.671875 20.09375 41.871094 20.070312 41.851562 C 20.050781 41.828125 20.359375 40.804688 20.585938 40.132812 C 21.144531 38.480469 21.910156 36.71875 22.699219 35.265625 C 23.011719 34.6875 22.984375 34.71875 23.113281 34.796875 C 23.167969 34.832031 23.777344 35.183594 24.464844 35.582031 M 77.042969 35.488281 C 77.816406 36.960938 78.5 38.546875 79.003906 40.035156 C 79.191406 40.582031 79.605469 41.941406 79.589844 41.949219 C 79.546875 41.976562 76.550781 42.761719 76.539062 42.75 C 76.53125 42.742188 76.449219 42.46875 76.351562 42.144531 C 75.832031 40.371094 75.074219 38.523438 74.195312 36.882812 L 73.980469 36.476562 L 75.347656 35.691406 C 76.097656 35.253906 76.722656 34.910156 76.738281 34.925781 C 76.75 34.9375 76.886719 35.191406 77.042969 35.488281 M 41.914062 38.621094 L 43.949219 39.550781 L 45.640625 43.417969 C 46.570312 45.542969 47.332031 47.289062 47.332031 47.296875 C 47.332031 47.308594 38.910156 38.851562 36.820312 36.742188 L 36.015625 35.933594 L 37.949219 36.8125 C 39.011719 37.296875 40.796875 38.113281 41.914062 38.621094 M 62.28125 39.96875 C 61.296875 42.121094 60.476562 43.902344 60.457031 43.921875 C 60.429688 43.953125 54.679688 46.480469 52.816406 47.285156 C 52.726562 47.324219 55.144531 44.902344 62.132812 37.941406 C 63.183594 36.894531 64.050781 36.039062 64.054688 36.046875 C 64.0625 36.050781 63.261719 37.816406 62.28125 39.96875 M 21.484375 42.65625 C 22.289062 42.867188 22.960938 43.054688 22.976562 43.070312 C 22.996094 43.082031 22.945312 43.355469 22.871094 43.671875 C 22.695312 44.429688 22.554688 45.179688 22.4375 45.964844 C 22.386719 46.3125 22.335938 46.605469 22.328125 46.613281 C 22.304688 46.632812 19.128906 47.140625 19.113281 47.125 C 19.09375 47.105469 19.253906 45.785156 19.347656 45.183594 C 19.527344 44.035156 19.914062 42.265625 19.980469 42.265625 C 20 42.265625 20.675781 42.441406 21.484375 42.65625 M 79.859375 43.035156 C 80.164062 44.363281 80.574219 46.96875 80.492188 47.054688 C 80.476562 47.070312 77.308594 46.574219 77.277344 46.554688 C 77.273438 46.550781 77.25 46.378906 77.21875 46.167969 C 77.09375 45.285156 76.902344 44.265625 76.71875 43.515625 C 76.675781 43.332031 76.644531 43.175781 76.65625 43.167969 C 76.730469 43.09375 79.683594 42.347656 79.707031 42.398438 C 79.71875 42.429688 79.789062 42.714844 79.859375 43.035156 M 42.960938 46.953125 C 44.75 47.734375 46.261719 48.394531 46.316406 48.417969 C 46.402344 48.457031 45.644531 48.464844 41.625 48.464844 L 36.832031 48.464844 L 36.832031 48.359375 C 36.832031 47.671875 36.234375 47.007812 35.515625 46.894531 C 34.632812 46.757812 33.734375 47.476562 33.734375 48.320312 C 33.734375 48.425781 33.726562 48.429688 33.574219 48.449219 C 32.816406 48.554688 32.203125 49.183594 32.199219 49.859375 L 32.199219 50 L 22.292969 49.996094 C 16.84375 49.992188 12.414062 49.984375 12.449219 49.976562 C 12.488281 49.96875 18.628906 48.96875 26.101562 47.753906 C 33.570312 46.535156 39.6875 45.539062 39.695312 45.539062 C 39.699219 45.535156 41.167969 46.171875 42.960938 46.953125 M 65.050781 47.382812 C 65.660156 47.566406 65.992188 48.175781 65.84375 48.84375 L 65.824219 48.9375 L 65.988281 48.910156 C 66.6875 48.792969 67.296875 49.203125 67.414062 49.875 L 67.4375 50 L 50.351562 50 L 50.898438 49.449219 L 51.449219 48.898438 L 57.523438 48.898438 C 60.867188 48.898438 63.601562 48.894531 63.601562 48.886719 C 63.601562 48.882812 63.585938 48.796875 63.566406 48.699219 C 63.410156 47.878906 64.242188 47.140625 65.050781 47.382812 M 49.246094 50.023438 L 49.605469 50.042969 L 49.078125 50.570312 L 48.550781 51.101562 L 36.394531 51.101562 L 36.417969 51.242188 C 36.488281 51.632812 36.390625 51.992188 36.148438 52.261719 C 35.316406 53.183594 33.839844 52.378906 34.144531 51.171875 L 34.171875 51.058594 L 34.027344 51.089844 C 33.3125 51.230469 32.574219 50.699219 32.566406 50.042969 C 32.566406 49.996094 48.523438 49.976562 49.246094 50.023438 M 87.550781 50.023438 C 87.511719 50.03125 81.363281 51.03125 73.882812 52.246094 L 60.285156 54.457031 L 56.945312 53.003906 L 53.609375 51.550781 L 58.394531 51.542969 C 61.023438 51.535156 63.183594 51.539062 63.191406 51.546875 C 63.199219 51.554688 63.21875 51.664062 63.234375 51.789062 C 63.414062 53.058594 65.007812 53.558594 65.894531 52.621094 C 66.089844 52.414062 66.253906 52.097656 66.285156 51.867188 C 66.328125 51.53125 66.328125 51.535156 66.464844 51.535156 C 67.113281 51.535156 67.75 50.898438 67.847656 50.160156 L 67.871094 50 L 77.742188 50.003906 C 83.171875 50.007812 87.585938 50.015625 87.550781 50.023438 M 51.101562 57.527344 L 51.101562 63.605469 L 51.257812 63.578125 C 52.570312 63.359375 53.210938 65.085938 52.0625 65.742188 C 51.792969 65.898438 51.492188 65.929688 51.121094 65.84375 C 51.054688 65.832031 51.03125 65.835938 51.046875 65.859375 C 51.378906 66.402344 50.722656 67.433594 50.042969 67.433594 C 50.007812 67.433594 50 65.941406 50 58.890625 L 50 50.351562 L 50.550781 50.898438 L 51.101562 51.449219 L 51.101562 57.527344 M 43.550781 56.390625 C 37.863281 62.066406 35.921875 63.988281 35.941406 63.933594 C 36.003906 63.757812 39.511719 56.109375 39.542969 56.078125 C 39.566406 56.054688 41.316406 55.277344 43.433594 54.351562 C 45.550781 53.425781 47.285156 52.667969 47.285156 52.667969 C 47.285156 52.667969 45.605469 54.34375 43.550781 56.390625 M 63.164062 63.242188 L 63.980469 64.066406 L 62.214844 63.261719 C 61.246094 62.820312 59.460938 62.003906 58.25 61.453125 L 56.050781 60.449219 L 54.359375 56.582031 C 53.429688 54.457031 52.667969 52.710938 52.667969 52.703125 C 52.667969 52.691406 60.976562 61.035156 63.164062 63.242188 M 20.824219 53.136719 L 22.332031 53.382812 L 22.347656 53.480469 C 22.359375 53.539062 22.402344 53.847656 22.449219 54.167969 C 22.554688 54.886719 22.691406 55.589844 22.886719 56.429688 C 22.972656 56.785156 23.027344 57.085938 23.011719 57.097656 C 22.980469 57.125 20.074219 57.902344 20.011719 57.902344 C 19.871094 57.898438 19.109375 53.707031 19.101562 52.886719 C 19.101562 52.871094 19.148438 52.867188 19.207031 52.875 C 19.269531 52.886719 19.996094 53.003906 20.824219 53.136719 M 80.449219 53.574219 C 80.308594 54.789062 80.070312 56.140625 79.796875 57.269531 L 79.664062 57.824219 L 79.257812 57.71875 C 79.03125 57.65625 78.355469 57.476562 77.75 57.316406 C 77.144531 57.15625 76.640625 57.015625 76.628906 57.003906 C 76.613281 56.992188 76.648438 56.804688 76.703125 56.582031 C 76.855469 55.960938 77.082031 54.78125 77.1875 54.082031 L 77.28125 53.445312 L 78.816406 53.191406 C 79.660156 53.054688 80.386719 52.9375 80.4375 52.9375 L 80.523438 52.933594 L 80.449219 53.574219 M 48.484375 63.160156 C 48.476562 63.164062 48.378906 63.183594 48.261719 63.199219 C 46.480469 63.433594 46.46875 66.015625 48.246094 66.269531 C 48.480469 66.300781 48.457031 66.273438 48.496094 66.53125 C 48.605469 67.207031 49.144531 67.722656 49.839844 67.816406 L 50 67.835938 L 49.996094 77.742188 L 49.996094 87.648438 L 47.769531 73.96875 L 45.542969 60.285156 L 47.015625 56.910156 L 48.484375 53.535156 L 48.492188 58.339844 C 48.496094 60.980469 48.492188 63.152344 48.484375 63.160156 M 23.964844 53.644531 L 24.214844 53.683594 L 24.320312 54.300781 C 26.183594 65.335938 34.976562 74.054688 45.851562 75.652344 C 46.332031 75.722656 46.300781 75.699219 46.355469 76.039062 C 46.40625 76.371094 46.492188 76.34375 45.785156 76.230469 C 34.777344 74.503906 26.054688 66.105469 23.886719 55.148438 C 23.78125 54.617188 23.632812 53.734375 23.632812 53.636719 C 23.632812 53.59375 23.644531 53.59375 23.964844 53.644531 M 75.929688 54.074219 C 74.300781 64.875 65.980469 73.699219 55.300781 75.964844 C 54.917969 76.046875 53.695312 76.265625 53.625 76.265625 C 53.609375 76.265625 53.695312 75.691406 53.714844 75.675781 C 53.71875 75.671875 53.976562 75.621094 54.285156 75.566406 C 65.042969 73.679688 73.609375 65.003906 75.300781 54.289062 C 75.339844 54.046875 75.378906 53.824219 75.386719 53.796875 C 75.402344 53.746094 75.652344 53.683594 75.902344 53.671875 L 75.988281 53.667969 L 75.929688 54.074219 M 31.785156 54.917969 C 35.226562 55.476562 38.046875 55.9375 38.050781 55.941406 C 38.054688 55.945312 36.941406 58.386719 35.582031 61.367188 C 34.21875 64.347656 33.113281 66.789062 33.128906 66.792969 C 33.140625 66.796875 35.605469 65.707031 38.601562 64.371094 C 41.597656 63.03125 44.054688 61.941406 44.058594 61.945312 C 44.078125 61.964844 46.097656 74.480469 46.085938 74.492188 C 46.066406 74.511719 45.707031 74.453125 45 74.3125 C 35.085938 72.34375 27.304688 64.386719 25.515625 54.382812 C 25.472656 54.125 25.433594 53.914062 25.433594 53.910156 C 25.433594 53.886719 25.898438 53.960938 31.785156 54.917969 M 74.152344 54.125 C 74.101562 54.480469 73.851562 55.652344 73.714844 56.183594 C 71.382812 65.226562 64.167969 72.214844 55.101562 74.214844 C 54.464844 74.351562 53.9375 74.449219 53.921875 74.429688 C 53.910156 74.417969 55.910156 62.046875 55.9375 61.972656 C 55.945312 61.953125 58.402344 63.03125 61.398438 64.371094 C 64.394531 65.707031 66.859375 66.796875 66.871094 66.792969 C 66.886719 66.789062 65.78125 64.347656 64.417969 61.367188 C 63.058594 58.386719 61.957031 55.945312 61.972656 55.9375 C 62.03125 55.914062 73.980469 53.972656 74.078125 53.96875 C 74.175781 53.964844 74.175781 53.96875 74.152344 54.125 M 78.066406 57.816406 C 78.863281 58.027344 79.527344 58.207031 79.539062 58.210938 C 79.644531 58.242188 78.667969 61.03125 78.082031 62.382812 C 77.675781 63.316406 76.792969 65.085938 76.671875 65.207031 C 76.648438 65.230469 74.046875 63.757812 73.957031 63.671875 C 73.941406 63.65625 74.039062 63.441406 74.171875 63.195312 C 75.042969 61.582031 75.796875 59.757812 76.300781 58.058594 C 76.394531 57.742188 76.476562 57.464844 76.484375 57.4375 C 76.492188 57.414062 76.527344 57.402344 76.558594 57.414062 C 76.589844 57.421875 77.269531 57.605469 78.066406 57.816406 M 23.316406 58.042969 C 23.878906 59.933594 24.695312 61.859375 25.703125 63.652344 L 25.800781 63.824219 L 24.429688 64.617188 C 23.367188 65.230469 23.050781 65.398438 23.027344 65.363281 C 22.617188 64.734375 21.578125 62.550781 21.070312 61.25 C 20.707031 60.308594 20.0625 58.359375 20.105469 58.316406 C 20.121094 58.300781 23.066406 57.507812 23.121094 57.503906 C 23.140625 57.5 23.226562 57.742188 23.316406 58.042969 M 75.089844 64.808594 C 75.828125 65.234375 76.433594 65.597656 76.433594 65.613281 C 76.433594 65.800781 74.84375 68.136719 73.949219 69.265625 C 73.347656 70.027344 71.96875 71.589844 71.875 71.625 C 71.859375 71.628906 71.347656 71.132812 70.734375 70.519531 L 69.621094 69.40625 L 70.054688 68.945312 C 71.308594 67.601562 72.472656 66.070312 73.398438 64.542969 C 73.566406 64.261719 73.714844 64.035156 73.726562 64.035156 C 73.738281 64.035156 74.351562 64.382812 75.089844 64.808594 M 26.265625 64.609375 C 27.195312 66.136719 28.457031 67.773438 29.773438 69.164062 C 29.988281 69.394531 30.167969 69.589844 30.167969 69.597656 C 30.167969 69.609375 29.667969 70.117188 29.054688 70.726562 L 27.945312 71.835938 L 27.464844 71.328125 C 26.273438 70.066406 25.261719 68.8125 24.292969 67.382812 C 23.78125 66.625 23.246094 65.757812 23.285156 65.742188 C 23.300781 65.738281 23.910156 65.386719 24.632812 64.96875 C 25.359375 64.546875 25.964844 64.203125 25.984375 64.203125 C 26 64.199219 26.128906 64.382812 26.265625 64.609375 M 70.460938 70.84375 L 71.570312 71.953125 L 71.074219 72.421875 C 69.488281 73.929688 67.96875 75.113281 66.125 76.277344 C 65.734375 76.527344 65.5625 76.617188 65.542969 76.589844 C 65.527344 76.566406 65.171875 75.949219 64.746094 75.21875 L 63.976562 73.886719 L 64.535156 73.53125 C 66.15625 72.5 67.636719 71.34375 68.890625 70.125 C 69.113281 69.910156 69.308594 69.734375 69.320312 69.734375 C 69.335938 69.734375 69.847656 70.234375 70.460938 70.84375 M 30.949219 70.335938 C 32.140625 71.472656 33.894531 72.8125 35.382812 73.714844 C 35.675781 73.894531 35.917969 74.042969 35.921875 74.046875 C 35.925781 74.050781 35.574219 74.667969 35.136719 75.425781 L 34.34375 76.796875 L 33.898438 76.527344 C 32.082031 75.441406 29.453125 73.40625 28.351562 72.234375 L 28.253906 72.132812 L 29.367188 71.015625 L 30.480469 69.902344 L 30.582031 69.992188 C 30.636719 70.042969 30.804688 70.195312 30.949219 70.335938 M 64.398438 75.433594 C 64.820312 76.164062 65.175781 76.785156 65.183594 76.808594 C 65.203125 76.859375 64.683594 77.152344 63.632812 77.679688 C 61.929688 78.539062 60.347656 79.167969 58.445312 79.742188 L 58.175781 79.824219 L 57.769531 78.292969 C 57.542969 77.453125 57.363281 76.757812 57.371094 76.753906 C 57.378906 76.746094 57.636719 76.660156 57.949219 76.566406 C 59.734375 76.019531 61.65625 75.195312 63.234375 74.304688 C 63.425781 74.195312 63.59375 74.105469 63.605469 74.101562 C 63.617188 74.101562 63.972656 74.699219 64.398438 75.433594 M 36.832031 74.546875 C 38.464844 75.425781 40.207031 76.136719 42.085938 76.691406 L 42.621094 76.851562 L 42.214844 78.359375 C 41.992188 79.1875 41.800781 79.875 41.789062 79.886719 C 41.738281 79.941406 39.796875 79.316406 38.734375 78.90625 C 37.320312 78.363281 34.699219 77.097656 34.722656 76.976562 C 34.730469 76.929688 36.273438 74.265625 36.292969 74.265625 C 36.300781 74.265625 36.542969 74.394531 36.832031 74.546875 M 57.003906 77.007812 C 57.261719 77.957031 57.785156 79.933594 57.777344 79.933594 C 57.773438 79.933594 57.53125 79.992188 57.242188 80.066406 C 56.03125 80.367188 52.972656 80.898438 52.878906 80.820312 C 52.867188 80.8125 53.394531 77.59375 53.410156 77.578125 C 53.417969 77.570312 53.746094 77.511719 54.136719 77.449219 C 54.917969 77.324219 55.734375 77.160156 56.433594 76.984375 C 57 76.84375 56.957031 76.84375 57.003906 77.007812 M 43.300781 77.015625 C 43.964844 77.1875 45.390625 77.453125 46.292969 77.570312 C 46.5625 77.605469 46.601562 77.617188 46.617188 77.679688 C 46.648438 77.820312 47.132812 80.84375 47.125 80.851562 C 47.082031 80.894531 44.941406 80.597656 44.050781 80.429688 C 43.53125 80.332031 42.226562 80.039062 42.207031 80.015625 C 42.199219 80.011719 42.375 79.328125 42.597656 78.503906 C 42.820312 77.675781 43 76.992188 43 76.984375 C 43 76.953125 43.101562 76.964844 43.300781 77.015625 "/>
</g>
</svg>
