<svg id="svg" version="1.1" xmlns="http://www.w3.org/2000/svg" xmlns:xlink="http://www.w3.org/1999/xlink" width="200" height="200" viewBox="0, 0, 400,400"><g id="svgg"><path id="path0" d="M195.220 35.433 C 192.628 51.402,190.479 64.512,190.446 64.567 C 190.412 64.622,190.131 64.667,189.821 64.667 C 184.206 64.667,170.555 67.071,161.733 69.614 C 108.344 85.005,68.799 133.226,64.514 188.166 C 64.424 189.320,64.310 190.330,64.261 190.409 C 64.212 190.489,51.173 192.664,35.286 195.244 C 19.399 197.823,6.401 199.963,6.401 200.000 C 6.401 200.037,19.395 202.176,35.277 204.754 C 51.159 207.333,64.187 209.476,64.229 209.518 C 64.270 209.559,64.356 210.209,64.419 210.963 C 69.125 266.959,106.725 313.720,160.200 330.083 C 169.056 332.793,183.549 335.448,189.592 335.469 C 189.926 335.470,190.274 335.518,190.365 335.576 C 190.470 335.642,192.267 346.374,195.232 364.640 C 197.818 380.568,199.963 393.600,200.000 393.600 C 200.037 393.600,202.187 380.535,204.779 364.567 C 207.371 348.598,209.507 335.517,209.526 335.498 C 209.545 335.478,210.514 335.373,211.680 335.263 C 277.079 329.131,329.308 276.097,334.076 210.978 C 334.147 210.010,334.211 209.744,334.383 209.700 C 334.502 209.669,347.875 207.489,364.100 204.855 C 380.325 202.221,393.599 200.037,393.599 200.000 C 393.599 199.963,380.246 197.765,363.926 195.115 C 347.606 192.465,334.234 190.275,334.211 190.249 C 334.188 190.222,334.068 189.090,333.945 187.733 C 328.056 122.672,276.255 70.646,211.629 64.884 C 210.508 64.784,209.572 64.679,209.548 64.651 C 209.525 64.623,207.382 51.505,204.786 35.500 C 202.190 19.495,200.037 6.400,200.000 6.400 C 199.963 6.400,197.812 19.465,195.220 35.433 M209.052 104.865 L 217.824 158.863 212.104 171.995 C 208.957 179.218,206.357 185.154,206.325 185.186 C 206.293 185.218,206.267 176.684,206.267 166.222 L 206.267 147.200 206.705 147.200 C 209.792 147.200,212.533 144.284,212.533 141.000 C 212.533 137.716,209.792 134.800,206.705 134.800 C 206.304 134.800,206.267 134.765,206.267 134.386 C 206.267 131.635,203.347 128.667,200.642 128.667 L 200.133 128.667 200.151 89.500 C 200.161 67.958,200.194 50.453,200.225 50.600 C 200.255 50.747,204.227 75.166,209.052 104.865 M188.479 77.033 C 188.437 77.235,187.982 80.010,187.467 83.200 C 186.953 86.390,186.499 89.159,186.458 89.354 C 186.388 89.689,186.321 89.717,185.226 89.863 C 181.380 90.377,177.054 91.162,173.802 91.937 C 172.776 92.181,171.927 92.370,171.916 92.357 C 171.778 92.202,168.681 80.200,168.759 80.126 C 169.288 79.625,179.777 77.693,185.733 76.999 C 187.163 76.833,188.383 76.690,188.444 76.682 C 188.505 76.673,188.520 76.832,188.479 77.033 M218.333 77.747 C 223.474 78.542,231.200 80.263,231.200 80.614 C 231.200 80.719,230.537 83.279,229.727 86.302 C 228.916 89.326,228.196 92.018,228.126 92.285 L 227.998 92.770 226.232 92.319 C 223.664 91.662,219.669 90.852,216.495 90.344 C 214.971 90.101,213.696 89.874,213.663 89.841 C 213.630 89.808,213.153 86.995,212.602 83.591 C 212.051 80.186,211.571 77.276,211.537 77.124 L 211.474 76.849 213.570 77.092 C 214.723 77.226,216.867 77.521,218.333 77.747 M167.119 80.767 C 167.674 82.616,170.270 92.598,170.226 92.712 C 170.192 92.797,169.543 93.040,168.783 93.252 C 162.020 95.136,153.652 98.541,147.116 102.070 C 145.965 102.691,144.985 103.200,144.939 103.200 C 144.893 103.200,144.190 102.045,143.375 100.633 C 142.560 99.222,141.142 96.764,140.222 95.172 L 138.550 92.276 140.119 91.413 C 147.632 87.281,156.419 83.635,164.900 81.130 C 167.221 80.445,167.031 80.476,167.119 80.767 M235.747 81.793 C 242.535 83.940,248.353 86.300,254.533 89.412 C 257.896 91.105,261.009 92.856,260.973 93.032 C 260.941 93.185,254.948 103.609,254.791 103.784 C 254.733 103.848,253.767 103.390,252.643 102.766 C 246.080 99.120,239.006 96.110,231.555 93.794 C 229.581 93.180,229.577 93.178,229.664 92.823 C 229.712 92.627,230.437 89.906,231.275 86.776 C 232.114 83.646,232.800 81.051,232.800 81.009 C 232.800 80.871,233.005 80.926,235.747 81.793 M140.163 98.333 C 141.811 101.193,143.227 103.661,143.309 103.816 C 143.448 104.080,143.342 104.171,141.762 105.140 C 135.124 109.215,128.764 114.090,123.277 119.309 L 121.688 120.821 117.211 116.337 L 112.733 111.853 114.333 110.326 C 119.161 105.718,125.259 100.816,130.667 97.197 C 132.568 95.925,137.112 93.061,137.149 93.112 C 137.158 93.124,138.514 95.473,140.163 98.333 M264.933 95.311 C 271.888 99.708,278.180 104.645,284.500 110.663 L 286.532 112.599 282.036 117.097 L 277.540 121.595 275.803 119.891 C 270.742 114.925,264.134 109.757,257.704 105.737 L 256.141 104.759 256.570 104.006 C 260.110 97.796,262.493 93.781,262.600 93.843 C 262.673 93.886,263.723 94.546,264.933 95.311 M185.391 95.933 C 185.294 96.520,185.211 97.061,185.207 97.137 C 185.203 97.212,184.465 97.382,183.567 97.515 C 139.787 104.001,104.650 138.832,97.263 183.067 C 96.861 185.473,97.010 185.249,95.679 185.447 C 94.373 185.640,94.464 185.870,94.859 183.384 C 101.811 139.595,135.464 104.554,178.800 95.980 C 180.428 95.658,185.469 94.821,185.551 94.859 C 185.560 94.863,185.489 95.347,185.391 95.933 M216.933 95.476 C 261.204 102.771,296.903 139.050,303.677 183.631 C 303.961 185.496,304.023 185.402,302.648 185.177 L 301.542 184.996 301.176 182.798 C 294.023 139.851,259.644 105.000,217.467 97.938 C 216.770 97.821,215.892 97.665,215.515 97.590 L 214.831 97.454 214.682 96.455 C 214.474 95.055,214.473 95.063,214.900 95.137 C 215.102 95.172,216.017 95.325,216.933 95.476 M184.344 102.500 C 184.302 102.702,182.467 113.962,180.266 127.523 C 178.065 141.084,176.250 152.194,176.232 152.212 C 176.215 152.229,166.391 147.868,154.403 142.521 C 142.415 137.173,132.563 132.813,132.509 132.832 C 132.455 132.851,136.871 142.617,142.321 154.533 L 152.230 176.200 151.881 176.290 C 151.249 176.453,101.861 184.438,101.812 184.385 C 101.742 184.309,102.446 180.499,102.931 178.333 C 111.428 140.347,141.862 110.499,179.800 102.947 C 184.547 102.002,184.447 102.012,184.344 102.500 M217.721 102.745 C 254.783 109.788,285.000 138.014,294.645 174.600 C 295.586 178.171,296.775 183.936,296.605 184.106 C 296.540 184.171,248.895 176.490,248.118 176.290 L 247.770 176.200 257.680 154.533 C 263.130 142.617,267.545 132.851,267.491 132.832 C 267.437 132.813,257.585 137.173,245.597 142.521 C 233.608 147.869,223.786 152.230,223.768 152.212 C 223.751 152.195,221.936 141.085,219.736 127.524 C 217.536 113.962,215.711 102.762,215.681 102.633 C 215.610 102.338,215.568 102.335,217.721 102.745 M119.793 122.719 C 119.430 123.121,118.344 124.309,117.379 125.358 C 112.758 130.386,108.299 136.359,104.533 142.567 C 104.144 143.208,103.768 143.733,103.698 143.733 C 103.605 143.733,93.091 137.735,92.831 137.534 C 92.811 137.518,93.473 136.402,94.303 135.053 C 98.638 128.002,104.031 120.981,109.786 114.896 L 111.524 113.058 115.989 117.522 L 120.453 121.987 119.793 122.719 M289.543 115.800 C 293.903 120.488,298.169 125.876,301.734 131.200 C 302.954 133.022,306.000 137.958,306.000 138.114 C 306.000 138.167,304.845 138.877,303.433 139.692 C 302.022 140.506,299.571 141.921,297.987 142.836 L 295.107 144.500 294.187 142.951 C 290.475 136.703,285.292 129.804,280.217 124.359 L 278.750 122.785 283.208 118.326 C 285.659 115.873,287.697 113.881,287.736 113.900 C 287.775 113.918,288.588 114.773,289.543 115.800 M200.000 158.711 C 200.000 174.356,199.960 189.691,199.911 192.788 L 199.823 198.420 197.711 196.312 L 195.600 194.203 195.600 169.893 L 195.600 145.584 194.967 145.691 C 189.877 146.555,187.189 140.077,191.456 137.229 C 192.626 136.447,194.073 136.225,195.448 136.616 C 195.756 136.704,195.761 136.693,195.648 136.119 C 195.089 133.268,197.123 130.381,199.767 130.276 C 199.988 130.267,200.000 131.707,200.000 158.711 M97.858 142.324 C 100.603 143.908,102.868 145.224,102.891 145.247 C 102.914 145.270,102.416 146.244,101.785 147.411 C 98.288 153.872,95.096 161.649,93.061 168.667 C 92.753 169.730,92.484 170.620,92.463 170.643 C 92.421 170.691,80.368 167.479,80.288 167.399 C 80.206 167.317,81.430 163.217,82.337 160.532 C 84.571 153.921,87.635 146.868,90.795 141.063 C 92.054 138.752,91.943 138.877,92.450 139.187 C 92.679 139.328,95.113 140.739,97.858 142.324 M308.169 141.948 C 311.264 147.843,314.004 154.186,316.022 160.133 C 316.766 162.327,318.426 167.767,318.363 167.802 C 318.187 167.899,306.199 171.043,306.158 171.003 C 306.128 170.972,305.790 169.879,305.406 168.574 C 303.323 161.478,300.296 154.091,296.780 147.524 L 295.918 145.914 301.387 142.759 C 304.396 141.023,306.898 139.648,306.949 139.702 C 306.999 139.756,307.548 140.767,308.169 141.948 M167.664 154.490 L 175.794 158.200 182.559 173.667 C 186.279 182.173,189.325 189.158,189.328 189.188 C 189.333 189.235,155.646 155.413,147.276 146.965 L 144.070 143.730 151.802 147.255 C 156.054 149.194,163.192 152.450,167.664 154.490 M249.122 159.876 C 245.195 168.487,241.910 175.606,241.824 175.694 C 241.711 175.810,218.715 185.929,211.267 189.140 C 210.913 189.293,220.572 179.607,248.528 151.773 C 252.742 147.578,256.206 144.162,256.226 144.182 C 256.246 144.202,253.049 151.264,249.122 159.876 M85.933 170.618 C 89.160 171.476,91.851 172.222,91.914 172.277 C 91.977 172.331,91.785 173.416,91.488 174.688 C 90.778 177.722,90.211 180.714,89.749 183.853 C 89.543 185.256,89.350 186.424,89.320 186.449 C 89.226 186.526,76.513 188.557,76.458 188.503 C 76.379 188.423,77.014 183.134,77.393 180.728 C 78.113 176.144,79.649 169.070,79.925 169.063 C 80.003 169.060,82.707 169.761,85.933 170.618 M319.442 172.144 C 320.664 177.452,322.299 187.879,321.962 188.215 C 321.904 188.274,309.242 186.302,309.112 186.214 C 309.101 186.206,308.994 185.510,308.874 184.667 C 308.375 181.138,307.609 177.069,306.879 174.067 C 306.700 173.334,306.584 172.704,306.621 172.668 C 306.917 172.372,318.742 169.396,318.821 169.597 C 318.869 169.721,319.149 170.867,319.442 172.144 M171.840 187.817 C 179.005 190.943,185.047 193.581,185.267 193.679 C 185.602 193.828,182.580 193.857,166.500 193.861 L 147.333 193.867 147.333 193.442 C 147.333 190.687,144.942 188.028,142.060 187.580 C 138.531 187.030,134.933 189.911,134.933 193.287 C 134.933 193.699,134.907 193.721,134.300 193.802 C 131.265 194.212,128.808 196.728,128.801 199.433 L 128.800 200.000 89.167 199.982 C 67.368 199.972,49.653 199.939,49.800 199.908 C 49.947 199.877,74.517 195.872,104.400 191.008 C 134.283 186.144,158.751 182.158,158.774 182.149 C 158.796 182.140,164.676 184.691,171.840 187.817 M260.202 189.527 C 262.645 190.262,263.972 192.705,263.382 195.377 L 263.298 195.755 263.949 195.644 C 266.750 195.167,269.188 196.814,269.658 199.500 L 269.745 200.000 235.574 200.000 L 201.403 200.000 203.600 197.800 L 205.797 195.600 230.098 195.600 C 243.464 195.600,254.400 195.578,254.400 195.552 C 254.400 195.525,254.339 195.184,254.265 194.793 C 253.642 191.508,256.972 188.555,260.202 189.527 M196.990 200.088 L 198.422 200.175 196.312 202.288 L 194.203 204.400 169.890 204.400 L 145.577 204.400 145.675 204.967 C 145.947 206.530,145.565 207.965,144.591 209.049 C 141.271 212.741,135.353 209.517,136.580 204.686 L 136.694 204.239 136.114 204.353 C 133.248 204.916,130.293 202.800,130.268 200.167 C 130.267 199.986,194.088 199.910,196.990 200.088 M350.200 200.092 C 350.053 200.123,325.453 204.127,295.533 208.990 L 241.133 217.833 227.783 212.017 L 214.433 206.200 233.572 206.166 C 244.098 206.148,252.734 206.156,252.763 206.185 C 252.792 206.214,252.874 206.650,252.945 207.152 C 253.663 212.241,260.024 214.235,263.572 210.483 C 264.361 209.649,265.018 208.387,265.137 207.476 C 265.315 206.118,265.307 206.133,265.856 206.133 C 268.446 206.133,270.997 203.601,271.398 200.633 L 271.483 200.000 310.975 200.018 C 332.695 200.028,350.347 200.061,350.200 200.092 M204.400 230.107 L 204.400 254.416 205.033 254.312 C 210.285 253.444,212.844 260.341,208.246 262.972 C 207.173 263.586,205.974 263.716,204.480 263.381 C 204.222 263.323,204.123 263.342,204.182 263.437 C 205.520 265.603,202.892 269.733,200.176 269.733 C 200.031 269.733,200.000 263.758,200.000 235.568 L 200.000 201.403 202.200 203.600 L 204.400 205.797 204.400 230.107 M174.206 225.566 C 151.448 248.264,143.691 255.953,143.770 255.733 C 144.023 255.033,158.047 224.435,158.175 224.306 C 158.262 224.217,165.263 221.114,173.733 217.411 C 182.203 213.707,189.136 210.675,189.139 210.672 C 189.143 210.669,182.423 217.372,174.206 225.566 M252.657 252.968 L 255.929 256.270 248.865 253.047 C 244.979 251.275,237.841 248.019,233.003 245.812 L 224.205 241.800 217.441 226.333 C 213.721 217.827,210.675 210.842,210.672 210.812 C 210.667 210.765,243.907 244.140,252.657 252.968 M83.299 212.548 L 89.332 213.524 89.398 213.929 C 89.434 214.151,89.616 215.383,89.804 216.667 C 90.225 219.552,90.766 222.353,91.553 225.715 C 91.885 227.134,92.107 228.339,92.045 228.392 C 91.924 228.496,80.298 231.607,80.047 231.603 C 79.480 231.592,76.433 214.833,76.401 211.549 C 76.401 211.485,76.595 211.463,76.833 211.501 C 77.072 211.540,79.981 212.011,83.299 212.548 M321.791 214.300 C 321.232 219.152,320.280 224.558,319.187 229.085 L 318.651 231.304 317.026 230.868 C 316.131 230.629,313.420 229.906,311.000 229.263 C 308.580 228.620,306.559 228.057,306.510 228.013 C 306.460 227.969,306.596 227.213,306.812 226.333 C 307.421 223.848,308.333 219.126,308.745 216.323 L 309.119 213.779 315.260 212.769 C 318.637 212.214,321.554 211.753,321.743 211.746 L 322.086 211.733 321.791 214.300 M193.944 252.633 C 193.913 252.664,193.508 252.740,193.044 252.800 C 185.927 253.733,185.874 264.056,192.981 265.072 C 193.926 265.207,193.823 265.100,193.988 266.120 C 194.423 268.822,196.583 270.888,199.367 271.264 L 200.000 271.350 199.989 310.975 L 199.978 350.600 191.077 295.870 L 182.177 241.140 188.055 227.641 L 193.933 214.141 193.967 233.359 C 193.986 243.929,193.975 252.602,193.944 252.633 M95.867 214.580 L 96.867 214.740 97.283 217.204 C 104.738 261.341,139.904 296.216,183.400 302.609 C 185.322 302.891,185.203 302.800,185.419 304.154 C 185.630 305.484,185.965 305.371,183.133 304.926 C 139.115 298.017,104.221 264.422,95.547 220.600 C 95.126 218.474,94.533 214.930,94.533 214.542 C 94.533 214.373,94.580 214.374,95.867 214.580 M303.713 216.300 C 297.196 259.493,263.923 294.803,221.200 303.863 C 219.679 304.185,214.776 305.067,214.503 305.067 C 214.444 305.067,214.785 302.771,214.853 302.702 C 214.875 302.681,215.906 302.485,217.146 302.268 C 260.169 294.712,294.439 260.012,301.206 217.155 C 301.358 216.190,301.511 215.303,301.545 215.185 C 301.603 214.982,302.609 214.739,303.613 214.685 L 303.959 214.667 303.713 216.300 M127.137 219.668 C 140.911 221.906,152.193 223.751,152.207 223.768 C 152.222 223.786,147.773 233.550,142.322 245.467 C 136.871 257.383,132.455 267.149,132.509 267.168 C 132.563 267.187,142.415 262.827,154.403 257.479 C 166.392 252.131,176.215 247.770,176.232 247.788 C 176.306 247.862,184.396 297.915,184.342 297.969 C 184.265 298.047,182.830 297.808,180.000 297.247 C 140.336 289.378,109.221 257.552,102.068 217.533 C 101.885 216.507,101.734 215.652,101.734 215.633 C 101.732 215.548,103.594 215.844,127.137 219.668 M296.606 216.500 C 296.402 217.920,295.407 222.610,294.860 224.733 C 285.535 260.912,256.675 288.865,220.400 296.852 C 217.856 297.412,215.754 297.801,215.685 297.724 C 215.636 297.670,223.645 248.186,223.751 247.892 C 223.778 247.816,233.608 252.129,245.597 257.478 C 257.585 262.826,267.437 267.187,267.491 267.168 C 267.545 267.149,263.130 257.383,257.679 245.467 C 252.228 233.550,247.827 223.778,247.898 223.751 C 248.129 223.663,295.921 215.894,296.315 215.880 C 296.696 215.867,296.697 215.869,296.606 216.500 M312.267 231.267 C 315.457 232.117,318.106 232.824,318.154 232.839 C 318.571 232.969,314.678 244.128,312.330 249.533 C 310.705 253.273,307.176 260.344,306.694 260.826 C 306.597 260.923,296.183 255.036,295.835 254.688 C 295.772 254.625,296.155 253.770,296.685 252.787 C 300.165 246.332,303.192 239.026,305.199 232.241 C 305.575 230.972,305.908 229.854,305.940 229.757 C 305.972 229.661,306.104 229.613,306.233 229.652 C 306.361 229.690,309.077 230.417,312.267 231.267 M93.263 232.167 C 95.508 239.736,98.787 247.440,102.816 254.616 L 103.199 255.298 97.716 258.463 C 93.465 260.918,92.207 261.588,92.115 261.448 C 90.467 258.933,86.310 250.197,84.289 245.000 C 82.826 241.238,80.252 233.437,80.419 233.270 C 80.479 233.210,92.262 230.024,92.477 230.010 C 92.556 230.004,92.910 230.975,93.263 232.167 M300.358 259.233 C 303.314 260.938,305.733 262.388,305.733 262.454 C 305.735 263.196,299.372 272.551,295.795 277.067 C 293.388 280.105,287.882 286.361,287.493 286.500 C 287.441 286.519,285.394 284.529,282.945 282.078 L 278.490 277.622 280.213 275.778 C 285.234 270.400,289.885 264.278,293.590 258.167 C 294.268 257.048,294.859 256.133,294.903 256.133 C 294.947 256.133,297.402 257.528,300.358 259.233 M105.062 258.433 C 108.786 264.548,113.829 271.097,119.095 276.660 C 119.960 277.573,120.667 278.353,120.667 278.394 C 120.667 278.435,118.668 280.467,116.224 282.909 L 111.782 287.350 109.852 285.308 C 105.086 280.268,101.048 275.245,97.174 269.533 C 95.119 266.504,92.982 263.029,93.139 262.972 C 93.209 262.947,95.637 261.552,98.533 259.871 C 101.430 258.190,103.860 256.812,103.933 256.808 C 104.007 256.803,104.514 257.535,105.062 258.433 M281.838 283.372 L 286.276 287.810 284.304 289.682 C 277.953 295.711,271.876 300.448,264.505 305.112 C 262.934 306.106,262.245 306.475,262.172 306.361 C 262.114 306.273,260.681 303.803,258.986 300.874 L 255.905 295.547 258.146 294.121 C 264.623 290.000,270.543 285.371,275.555 280.507 C 276.446 279.641,277.227 278.933,277.289 278.933 C 277.351 278.933,279.398 280.931,281.838 283.372 M123.800 281.346 C 128.556 285.887,135.582 291.244,141.533 294.867 C 142.707 295.582,143.678 296.175,143.693 296.187 C 143.707 296.198,142.292 298.677,140.548 301.697 L 137.378 307.186 135.589 306.114 C 128.328 301.762,117.818 293.628,113.405 288.945 L 113.009 288.526 117.467 284.066 L 121.925 279.606 122.329 279.967 C 122.552 280.165,123.213 280.786,123.800 281.346 M257.592 301.732 C 259.287 304.664,260.702 307.139,260.737 307.232 C 260.814 307.435,258.738 308.603,254.533 310.724 C 247.712 314.164,241.396 316.676,233.788 318.973 L 232.709 319.299 231.072 313.176 C 230.172 309.809,229.457 307.033,229.484 307.008 C 229.511 306.982,230.553 306.648,231.800 306.266 C 238.934 304.077,246.623 300.785,252.933 297.219 C 253.703 296.784,254.373 296.421,254.422 296.414 C 254.471 296.406,255.898 298.799,257.592 301.732 M147.330 298.194 C 153.855 301.698,160.834 304.545,168.343 306.766 L 170.486 307.400 168.867 313.432 C 167.976 316.749,167.207 319.504,167.157 319.554 C 166.947 319.764,159.184 317.272,154.933 315.630 C 149.287 313.449,138.793 308.398,138.891 307.908 C 138.928 307.722,145.098 297.067,145.168 297.067 C 145.202 297.067,146.175 297.574,147.330 298.194 M228.011 308.033 C 229.046 311.824,231.144 319.733,231.116 319.733 C 231.095 319.733,230.131 319.970,228.972 320.260 C 224.125 321.472,211.896 323.587,211.508 323.281 C 211.463 323.245,213.576 310.380,213.637 310.319 C 213.670 310.286,214.980 310.053,216.548 309.802 C 219.667 309.303,222.938 308.641,225.733 307.943 C 228.003 307.376,227.830 307.369,228.011 308.033 M173.207 308.068 C 175.865 308.757,181.556 309.808,185.169 310.278 C 186.248 310.418,186.413 310.474,186.470 310.719 C 186.599 311.279,188.537 323.374,188.502 323.409 C 188.335 323.575,179.761 322.398,176.200 321.720 C 174.127 321.326,168.913 320.156,168.821 320.065 C 168.795 320.040,169.500 317.314,170.387 314.009 C 171.274 310.703,172.000 307.969,172.000 307.933 C 172.000 307.816,172.410 307.862,173.207 308.068 " stroke="none" fill="#000000" fill-rule="evenodd"></path></g></svg>